# xmcd
#
# Track frame offsets:
# 183
# 16770
# 29320
# 42505
# 50203
# 61465
# 73740
# 83563
# 95033
# 106515
# 117113
# 126068
# 136615
# 154825
# 169483
# 183965
# 198378
# 212588
# 220210
# 227645
# 236098
# 242245
# 249148
# 256198
# 263243
# 274168
# 285665
# 293910
# 304178
# 313415
# 325398
# 335038
# 350430
#
# Disc length: 4757 seconds
#
#
# Revision: 0
# Processed by: cddbd v1.5.2PL0 Copyright (c) Steve Scherf et al.
# Submitted via: FreeRIP 2.944 
#
DISCID=f1129321
DTITLE=ALL BLUES AB-CD 007 - ALL BLUES AB-CD 007
DYEAR=1900
DGENRE=Blues
TTITLE0=THE BLACKHAWK CLUB
TTITLE1=RAW BLUES
TTITLE2=R&B CITY A
TTITLE3=R&B CITY B
TTITLE4=SHUFFLIN AND JAMIN
TTITLE5=E MINOR BLUES
TTITLE6=MORE OR WES
TTITLE7=WHO'S THE ONE TO BLAME A
TTITLE8=WHO'S THE ONE TO BLAME B
TTITLE9=JIMBO'S FARM A
TTITLE10=JIMBO'S FARM B
TTITLE11=BIG TOWN BLUES
TTITLE12=BAR BAND BLUES A
TTITLE13=BAR BAND BLUES B
TTITLE14=BAR BAND BLUES C
TTITLE15=QUEEN SALLY
TTITLE16=PASSING THRU
TTITLE17=AIN'T GONNA MOAN NO MO A
TTITLE18=AIN'T GONNA MOAN NO MO B
TTITLE19=DIG THAT HARP
TTITLE20=NOTHIN BUT THE BLUES
TTITLE21=MAD HARP
TTITLE22=BLUESIN A
TTITLE23=BLUESIN B
TTITLE24=S&T BLUES
TTITLE25=BLUE KEUS
TTITLE26=DIGIN IN
TTITLE27=AMAZING GRACE
TTITLE28=BACKPORCH JAM
TTITLE29=LONE ROAD
TTITLE30=ALL BULES
TTITLE31=TUMBLEWEED BLUES
TTITLE32=RAG PICKING
EXTD=
EXTT0=
EXTT1=
EXTT2=
EXTT3=
EXTT4=
EXTT5=
EXTT6=
EXTT7=
EXTT8=
EXTT9=
EXTT10=
EXTT11=
EXTT12=
EXTT13=
EXTT14=
EXTT15=
EXTT16=
EXTT17=
EXTT18=
EXTT19=
EXTT20=
EXTT21=
EXTT22=
EXTT23=
EXTT24=
EXTT25=
EXTT26=
EXTT27=
EXTT28=
EXTT29=
EXTT30=
EXTT31=
EXTT32=
PLAYORDER=
